<?xml version="1.0" encoding="UTF-8"?>
<svg width="402px" height="442px" viewBox="0 0 402 442" version="1.1" xmlns="http://www.w3.org/2000/svg" xmlns:xlink="http://www.w3.org/1999/xlink">
    <!-- Generator: Sketch 3.8.1 (29687) - http://www.bohemiancoding.com/sketch -->
    <title>Slice 1</title>
    <desc>Created with Sketch.</desc>
    <defs></defs>
    <g id="Page-1" stroke="none" stroke-width="1" fill="none" fill-rule="evenodd">
        <path d="M220.142857,290.535714 L220.142857,266.607143 C220.142857,262.658929 216.9125,259.428571 212.964286,259.428571 L189.035714,259.428571 C185.0875,259.428571 181.857143,262.658929 181.857143,266.607143 L181.857143,290.535714 C181.857143,294.483929 185.0875,297.714286 189.035714,297.714286 L212.964286,297.714286 C216.9125,297.714286 220.142857,294.483929 220.142857,290.535714 L220.142857,290.535714 Z" id="Path" fill="#EB1478"></path>
        <path d="M277.571429,233.107143 L277.571429,209.178571 C277.571429,205.230357 274.341071,202 270.392857,202 L246.464286,202 C242.516071,202 239.285714,205.230357 239.285714,209.178571 L239.285714,233.107143 C239.285714,237.055357 242.516071,240.285714 246.464286,240.285714 L270.392857,240.285714 C274.341071,240.285714 277.571429,237.055357 277.571429,233.107143 L277.571429,233.107143 Z" id="Path" fill="#EB1478"></path>
        <path d="M220.142857,233.107143 L220.142857,209.178571 C220.142857,205.230357 216.9125,202 212.964286,202 L189.035714,202 C185.0875,202 181.857143,205.230357 181.857143,209.178571 L181.857143,233.107143 C181.857143,237.055357 185.0875,240.285714 189.035714,240.285714 L212.964286,240.285714 C216.9125,240.285714 220.142857,237.055357 220.142857,233.107143 L220.142857,233.107143 Z" id="Path" fill="#EB1478"></path>
        <path d="M155.535714,240.285714 L131.607143,240.285714 C127.658929,240.285714 124.428571,237.055357 124.428571,233.107143 L124.428571,209.178571 C124.428571,205.230357 127.658929,202 131.607143,202 L155.535714,202 C159.483929,202 162.714286,205.230357 162.714286,209.178571 L162.714286,233.107143 C162.714286,237.055357 159.483929,240.285714 155.535714,240.285714 L155.535714,240.285714 Z" id="Path" fill="#EB1478"></path>
        <path d="M162.714286,290.535714 L162.714286,266.607143 C162.714286,262.658929 159.483929,259.428571 155.535714,259.428571 L131.607143,259.428571 C127.658929,259.428571 124.428571,262.658929 124.428571,266.607143 L124.428571,290.535714 C124.428571,294.483929 127.658929,297.714286 131.607143,297.714286 L155.535714,297.714286 C159.483929,297.714286 162.714286,294.483929 162.714286,290.535714 L162.714286,290.535714 Z" id="Path" fill="#EB1478"></path>
        <path d="M277.571429,290.535714 L277.571429,266.607143 C277.571429,262.658929 274.341071,259.428571 270.392857,259.428571 L246.464286,259.428571 C242.516071,259.428571 239.285714,262.658929 239.285714,266.607143 L239.285714,290.535714 C239.285714,294.483929 242.516071,297.714286 246.464286,297.714286 L270.392857,297.714286 C274.341071,297.714286 277.571429,294.483929 277.571429,290.535714 L277.571429,290.535714 Z" id="Path" fill="#EB1478"></path>
        <path d="M335,135 L335,345.571429 C335,361.424107 322.138393,374.285714 306.285714,374.285714 L95.7142857,374.285714 C79.8616071,374.285714 67,361.424107 67,345.571429 L67,135 C67,119.147321 79.8616071,106.285714 95.7142857,106.285714 L124.428571,106.285714 L124.428571,75.1785714 C124.428571,71.2303571 127.658929,68 131.607143,68 L155.535714,68 C159.483929,68 162.714286,71.2303571 162.714286,75.1785714 L162.714286,106.285714 L239.285714,106.285714 L239.285714,75.1785714 C239.285714,71.2303571 242.516071,68 246.464286,68 L270.392857,68 C274.341071,68 277.571429,71.2303571 277.571429,75.1785714 L277.571429,106.285714 L306.285714,106.285714 C322.138393,106.285714 335,119.147321 335,135 L335,135 Z M306.285714,163.714286 L95.7142857,163.714286 L95.7142857,341.982143 C95.7142857,343.95625 97.3294643,345.571429 99.3035714,345.571429 L302.696429,345.571429 C304.670536,345.571429 306.285714,343.95625 306.285714,341.982143 L306.285714,163.714286 Z" id="Shape" fill="#CDCCD0"></path>
    </g>
</svg>