<?xml version="1.0" encoding="UTF-8"?>
<svg width="160px" height="125px" viewBox="0 0 160 125" version="1.1" xmlns="http://www.w3.org/2000/svg" xmlns:xlink="http://www.w3.org/1999/xlink">
    <!-- Generator: Sketch 3.8.1 (29687) - http://www.bohemiancoding.com/sketch -->
    <title>Slice 1</title>
    <desc>Created with Sketch.</desc>
    <defs></defs>
    <g id="Page-1" stroke="none" stroke-width="1" fill="none" fill-rule="evenodd">
        <g id="laptop-globe" transform="translate(39.000000, 32.000000)">
            <g id="XMLID_95_" fill="#EB1478">
                <g id="XMLID_780_">
                    <path d="M13.9123596,47.3854248 L68.2719101,47.3854248 C72.694382,47.3854248 76.3797753,43.7900327 76.3797753,39.2727451 L76.3797753,8.11267974 C76.3797753,3.6875817 72.7865169,0 68.2719101,0 L13.9123596,0 C9.48988764,0 5.80449438,3.59539216 5.80449438,8.11267974 L5.80449438,39.2727451 C5.80449438,43.7900327 9.48988764,47.3854248 13.9123596,47.3854248 L13.9123596,47.3854248 Z M9.58202247,8.11267974 C9.58202247,5.71575163 11.5168539,3.77977124 13.9123596,3.77977124 L68.2719101,3.77977124 C70.6674157,3.77977124 72.6022472,5.71575163 72.6022472,8.11267974 L72.6022472,39.2727451 C72.6022472,41.6696732 70.6674157,43.6056536 68.2719101,43.6056536 L13.9123596,43.6056536 C11.5168539,43.6056536 9.58202247,41.6696732 9.58202247,39.2727451 L9.58202247,8.11267974 L9.58202247,8.11267974 Z" id="XMLID_816_"></path>
                    <path d="M5.98876404,49.5057843 C2.94831461,49.5057843 0.460674157,51.994902 0.460674157,55.0371569 L0.460674157,56.3278105 C0.460674157,59.3700654 2.94831461,61.859183 5.98876404,61.859183 L76.3797753,61.859183 C79.4202247,61.859183 81.9078652,59.3700654 81.9078652,56.3278105 L81.9078652,55.0371569 C81.8157303,51.994902 79.3280899,49.5057843 76.2876404,49.5057843 L5.98876404,49.5057843 Z M78.1303371,56.3278105 C78.1303371,57.3418954 77.3011236,58.0794118 76.3797753,58.0794118 L5.98876404,58.0794118 C4.9752809,58.0794118 4.23820225,57.2497059 4.23820225,56.3278105 L4.23820225,55.0371569 C4.23820225,54.0230719 5.06741573,53.2855556 5.98876404,53.2855556 L76.3797753,53.2855556 C77.3932584,53.2855556 78.1303371,54.1152614 78.1303371,55.0371569 L78.1303371,56.3278105 L78.1303371,56.3278105 Z" id="XMLID_781_"></path>
                </g>
            </g>
            <rect id="Rectangle-1" fill="#55585F" x="13.7815126" y="8.95555556" width="15.1596639" height="2.75555556"></rect>
            <rect id="Rectangle-1-Copy-9" fill="#55585F" x="13.7815126" y="33.7555556" width="15.1596639" height="2.75555556"></rect>
            <rect id="Rectangle-1-Copy-3" fill="#55585F" x="13.7815126" y="17.2222222" width="19.2941176" height="2.75555556"></rect>
            <rect id="Rectangle-1-Copy-6" fill="#55585F" x="13.7815126" y="25.4888889" width="13.092437" height="2.75555556"></rect>
            <rect id="Rectangle-1-Copy-4" fill="#55585F" x="36.5210084" y="17.2222222" width="19.2941176" height="2.75555556"></rect>
            <rect id="Rectangle-1-Copy-7" fill="#55585F" x="28.9411765" y="25.4888889" width="19.2941176" height="2.75555556"></rect>
            <rect id="Rectangle-1-Copy-5" fill="#55585F" x="59.2605042" y="17.2222222" width="9.64705882" height="2.75555556"></rect>
            <rect id="Rectangle-1-Copy-8" fill="#55585F" x="49.6134454" y="25.4888889" width="19.2941176" height="2.75555556"></rect>
            <rect id="Rectangle-1-Copy" fill="#55585F" x="32.7310924" y="8.95555556" width="19.2941176" height="2.75555556"></rect>
            <rect id="Rectangle-1-Copy-10" fill="#55585F" x="32.3865546" y="33.7555556" width="19.2941176" height="2.75555556"></rect>
            <rect id="Rectangle-1-Copy-2" fill="#55585F" x="55.8151261" y="8.95555556" width="13.092437" height="2.75555556"></rect>
            <rect id="Rectangle-1-Copy-11" fill="#55585F" x="55.8151261" y="33.7555556" width="13.092437" height="2.75555556"></rect>
        </g>
    </g>
</svg>